<svg version="1.2" xmlns="http://www.w3.org/2000/svg" viewBox="0 0 800 800" width="800" height="800">
	<style>
		.s0 { fill: #ffffff } 
	</style>
	<path id="st3f" class="s0" aria-label="st3f"  d="m150.1 508.9q-21.3 0-40.6-4.1-19-4.3-29.5-10.5l22.8-44.9q12 7.3 26.9 11.1 15.1 3.5 28.6 3.5 11.1 0 15.1-2.1 4.4-2.3 4.4-5.5 0-3.5-5.8-5-5.9-1.7-15.2-2.9-9-1.2-19.3-3.5-10.2-2.3-19.5-6.7-9.1-4.7-14.9-12.9-5.8-8.1-5.8-21.6 0-20.7 11.9-33.8 12.3-13.4 32.7-19.9 20.4-6.7 45.3-6.7 17.5 0 33.5 3.2 16.4 3 28.9 8.8l-22.7 44.9q-12.6-7.3-25.1-9.6-12.3-2.3-22.5-2.3-11.4 0-15.8 2.6-4.4 2.3-4.4 5.3 0 3.5 5.9 5.2 5.8 1.8 14.9 3.2 9 1.2 19.2 3.5 10.5 2.1 19.6 6.7 9 4.4 14.9 12.6 5.8 8.2 5.8 21.6 0 19.8-12.3 33.3-11.9 13.4-32.4 20.1-20.1 6.4-44.6 6.4zm174.9 0q-20.4 0-34.7-7.6-14.3-7.6-20.2-22.2-5.8-14.8-1.7-35.6l26.5-133.1h66l-26.5 132.8q-1.5 8.2 1.7 12 3.2 3.8 9.9 3.8 4.1 0 7.3-0.9 3.5-1.1 7.3-2.9l7.6 44.4q-9 4.9-20.4 7.3-11.1 2-22.8 2zm51.7-114.4h-120.6l9.7-48.2h120.5zm74.3 116.2q-21.9 0-42.3-5.2-20.2-5.3-36.5-16.1l31.2-47.9q12 7.6 25.7 11.4 14 3.5 26.6 3.5 9.6 0 16-2 6.7-2.1 9.9-5.9 3.5-4 3.5-9.6 0-6.1-4.9-9-5-3.3-15.5-3.3h-28.3l8.5-42.3 62.1-53.7 3 23.1h-101.9l10.5-52h152.4l-8.5 42.3-62.2 53.8-30.6-18.1h15.2q21.3 0 36.7 6.7 15.8 6.7 24.3 18.9 8.7 12.3 8.7 28.9 0 21.9-13.7 39.4-13.4 17.3-37.1 27.2-23.3 9.9-52.8 9.9zm184.8-4.7h-65.9l30.9-154.7q5.8-28.6 26-46.7 20.4-18.1 55.2-18.1 11.9 0 22.1 2.1 10.5 1.7 18.4 5.8l-25.1 45.9q-7-3.8-14.9-3.8-7.8 0-12.2 4.3-4.1 4.4-6.2 14l-1.7 8.8-3.2 26zm53.1-102.8h-120.5l9.6-48.1h120.5z"/>
</svg>